#!OML:ASF H:\Dans Jumps\Project 1\Capture day 1\Session 1\subject.ASF
:FULLY-SPECIFIED
:DEGREES
429
root 0.0919985 17.3407 -5.62304 12.4833 1.01256 -1.2247
lowerback 8.83987 0.592892 -2.0095
upperback 5.02228 0.651733 1.88071
thorax 0.205644 0.261747 3.01774
lowerneck -13.2798 -0.660572 -0.599033
upperneck 28.2496 -1.08342 1.02857
head 11.3743 -0.419947 0.334954
rclavicle -4.07509e-015 -4.17448e-015
rhumerus -32.7391 3.09595 -84.594
rradius 61.7912
rwrist 14.8718
rhand -30.5345 -32.9765
rfingers 7.12502
rthumb -3.83364 -62.9218
lclavicle -4.07509e-015 -4.17448e-015
lhumerus -46.016 -18.237 85.5104
lradius 75.915
lwrist 44.8912
lhand -37.7653 -19.1909
lfingers 7.12502
lthumb -10.8129 10.5107
rfemur -33.2156 -6.27912 21.2407
rtibia 45.0496
rfoot -15.7891 -3.45615
rtoes 9.01636
lfemur -31.156 4.80822 -18.5753
ltibia 41.3413
lfoot -14.0363 5.78225
ltoes -0.143096
430
root 0.0890033 17.4226 -5.62739 13.2189 1.18608 -1.19843
lowerback 8.98001 0.594325 -2.10772
upperback 5.11574 0.644015 1.84626
thorax 0.226078 0.255014 3.03787
lowerneck -13.2882 -0.738527 -0.640694
upperneck 27.7273 -1.19827 1.10428
head 11.1781 -0.468292 0.353319
rclavicle -1.09332e-015 -3.18055e-015
rhumerus -33.1639 3.10608 -84.9985
rradius 61.6162
rwrist 14.5353
rhand -30.4429 -32.9696
rfingers 7.12502
rthumb -3.74518 -62.9165
lclavicle -1.09332e-015 -3.18055e-015
lhumerus -46.6419 -18.0587 85.9447
lradius 75.8842
lwrist 45.068
lhand -37.1489 -18.7327
lfingers 7.12502
lthumb -10.2183 10.9991
rfemur -33.0913 -6.09869 21.3247
rtibia 43.2761
rfoot -15.1638 -3.77624
rtoes 10.0921
lfemur -31.4429 4.5493 -18.5003
ltibia 40.1299
lfoot -13.2393 5.06327
ltoes 0.743473
431
root 0.0858321 17.5024 -5.63373 14.0006 1.37868 -1.15681
lowerback 9.08723 0.596534 -2.19901
upperback 5.18491 0.638249 1.80761
thorax 0.239372 0.249829 3.04962
lowerneck -13.3253 -0.80685 -0.669644
upperneck 27.2336 -1.2972 1.1638
head 11.0003 -0.510119 0.365743
rclavicle 5.46658e-015 9.93923e-016
rhumerus -33.62 3.13875 -85.3749
rradius 61.4383
rwrist 14.2309
rhand -30.3719 -32.9751
rfingers 7.12502
rthumb -3.67657 -62.9231
lclavicle 5.46658e-015 9.93923e-016
lhumerus -47.1977 -17.9191 86.3324
lradius 75.7146
lwrist 44.8568
lhand -36.6198 -18.1736
lfingers 7.12502
lthumb -9.70784 11.5827
rfemur -33.0796 -5.95161 21.3994
rtibia 41.5897
rfoot -14.4864 -4.06946
rtoes 11.2173
lfemur -31.8659 4.3429 -18.4781
ltibia 39.0376
lfoot -12.3809 4.37424
ltoes 1.71263
432
root 0.0832363 17.5804 -5.64204 14.825 1.57498 -1.10138
lowerback 9.15269 0.605607 -2.27418
upperback 5.2366 0.643352 1.76485
thorax 0.256794 0.250598 3.04715
lowerneck -13.3712 -0.870817 -0.693652
upperneck 26.748 -1.38601 1.20786
head 10.8287 -0.548813 0.373121
rclavicle -4.96962e-015 -2.38542e-015
rhumerus -34.0881 3.16673 -85.715
rradius 61.2422
rwrist 14.0376
rhand -30.3307 -32.988
rfingers 7.12502
rthumb -3.63678 -62.9367
lclavicle -4.96962e-015 -2.38542e-015
lhumerus -47.6687 -17.8241 86.6912
lradius 75.3867
lwrist 44.2962
lhand -36.2171 -17.5601
lfingers 7.12502
lthumb -9.31926 12.2139
rfemur -33.1799 -5.82994 21.4557
rtibia 39.9967
rfoot -13.7705 -4.31208
rtoes 12.373
lfemur -32.3907 4.1658 -18.5001
ltibia 38.0305
lfoot -11.477 3.73801
ltoes 2.7204
